<svg width="20" height="21" viewBox="0 0 20 21" fill="none" xmlns="http://www.w3.org/2000/svg">
<g clip-path="url(#clip0_39039_7883)">
<path d="M7.85729 0.482984C7.90145 0.48271 7.94562 0.482436 7.99113 0.482154C8.13709 0.481466 8.28302 0.481922 8.42899 0.482449C8.53086 0.482344 8.63273 0.482192 8.7346 0.481996C8.94831 0.481712 9.16201 0.482086 9.37572 0.482831C9.62135 0.483677 9.86696 0.483409 10.1126 0.482546C10.3502 0.481745 10.5877 0.481838 10.8253 0.482293C10.9257 0.482396 11.0261 0.482271 11.1265 0.481905C11.7741 0.480064 12.3577 0.494213 12.942 0.805936C12.9678 0.819387 12.9937 0.832837 13.0203 0.846696C13.2453 0.967558 13.4412 1.11014 13.6288 1.28445C13.6619 1.31507 13.695 1.34568 13.7291 1.37722C14.2006 1.83239 14.5231 2.39262 14.7306 3.01297C14.7399 3.04061 14.7492 3.06826 14.7587 3.09674C14.8902 3.51214 14.9252 3.91606 14.9248 4.35086C14.9248 4.40205 14.9249 4.45324 14.9249 4.50598C14.9205 4.91956 14.8663 5.30123 14.7549 5.69851C14.7777 5.70859 14.8005 5.71866 14.8241 5.72903C14.9177 5.78077 14.9747 5.83371 15.0461 5.91336C15.0682 5.93713 15.0902 5.96089 15.1129 5.98538C15.3433 6.33099 15.3609 6.66965 15.3555 7.07405C15.3543 7.16577 15.3547 7.25741 15.3552 7.34913C15.3542 8.06996 15.3542 8.06996 15.0995 8.33035C14.9126 8.56057 14.9579 8.88422 14.9521 9.16642C14.9375 9.58262 14.8133 9.92993 14.5219 10.2298C14.2593 10.4272 14.0308 10.5098 13.7034 10.498C13.365 10.4853 13.365 10.4853 13.0764 10.637C12.985 10.742 12.9091 10.8577 12.8315 10.9731C12.7219 11.1212 12.5879 11.2464 12.4566 11.3748C12.4305 11.4007 12.4043 11.4267 12.3774 11.4534C12.3158 11.5145 12.254 11.5753 12.1921 11.636C12.3349 11.7635 12.4558 11.8257 12.6383 11.8803C12.6645 11.8882 12.6907 11.8961 12.7177 11.9042C13.2391 12.0589 13.7655 12.1973 14.2906 12.3386C15.3314 12.6189 16.2882 12.9125 16.8718 13.9105C17.033 14.2136 17.1353 14.5129 17.2099 14.8474C17.2181 14.884 17.2263 14.9206 17.2347 14.9583C17.3503 15.4845 17.4494 16.014 17.548 16.5436C17.5765 16.6964 17.6058 16.8491 17.6351 17.0018C17.6581 17.1218 17.6805 17.242 17.7028 17.3622C17.7133 17.4185 17.724 17.4748 17.735 17.531C17.8811 18.2845 17.883 18.9689 17.473 19.6438C17.153 20.0832 16.6852 20.3907 16.1528 20.5032C16.0822 20.5068 16.0116 20.5083 15.9409 20.5084C15.8976 20.5086 15.8543 20.5088 15.8097 20.509C15.7621 20.509 15.7145 20.509 15.6655 20.509C15.615 20.5091 15.5644 20.5092 15.5124 20.5094C15.3719 20.5098 15.2315 20.5099 15.0911 20.51C14.9397 20.5102 14.7883 20.5106 14.6369 20.5109C14.2711 20.5117 13.9053 20.5121 13.5396 20.5124C13.3673 20.5126 13.195 20.5128 13.0226 20.513C12.4497 20.5137 11.8768 20.5142 11.3038 20.5145C11.1551 20.5146 11.0065 20.5147 10.8578 20.5147C10.8024 20.5148 10.8024 20.5148 10.7458 20.5148C10.1475 20.5151 9.54923 20.5161 8.95094 20.5174C8.33645 20.5187 7.72196 20.5194 7.10747 20.5195C6.76255 20.5196 6.41763 20.5199 6.07272 20.5209C5.7789 20.5218 5.48509 20.5221 5.19128 20.5217C5.04148 20.5215 4.89169 20.5216 4.74189 20.5224C4.57916 20.5232 4.41645 20.5228 4.25371 20.5223C4.20682 20.5227 4.15994 20.5231 4.11163 20.5236C3.52416 20.5191 3.03261 20.2882 2.60484 19.8883C2.15589 19.4031 2.0289 18.8174 2.05127 18.1759C2.06976 17.8842 2.13104 17.5972 2.18635 17.3108C2.19985 17.2387 2.21332 17.1666 2.22674 17.0945C2.2548 16.9445 2.28326 16.7947 2.31205 16.6448C2.34859 16.4545 2.38424 16.264 2.41959 16.0735C2.44723 15.9249 2.47528 15.7765 2.50346 15.6281C2.51674 15.5579 2.52991 15.4878 2.54297 15.4176C2.73367 14.3969 3.0617 13.5411 3.94571 12.9329C4.40862 12.6429 4.94206 12.5154 5.46451 12.3756C5.51691 12.3614 5.56931 12.3472 5.62171 12.3329C5.84084 12.2733 6.06007 12.2141 6.27937 12.1552C6.41482 12.1188 6.55018 12.082 6.68549 12.0451C6.76095 12.0246 6.83652 12.0044 6.91209 11.9843C7.33348 11.8767 7.33348 11.8767 7.68771 11.636C7.66699 11.6158 7.64627 11.5955 7.62492 11.5747C6.94344 10.9067 6.26931 10.2033 6.2029 9.19018C6.20251 9.08041 6.20485 8.97208 6.21215 8.86258C6.17461 8.86394 6.13707 8.8653 6.09839 8.8667C5.63102 8.87647 5.25929 8.82396 4.89191 8.51101C4.54414 8.14895 4.52247 7.73842 4.52511 7.25776C4.52544 7.16611 4.52432 7.07456 4.52309 6.98292C4.52122 6.5889 4.54575 6.21981 4.83123 5.92068C4.85281 5.89747 4.87438 5.87426 4.89661 5.85034C4.96957 5.77664 4.96957 5.77664 5.0806 5.69012C5.10803 5.65422 5.13546 5.61832 5.16372 5.58133C5.14463 5.46186 5.11934 5.37108 5.07878 5.25906C4.8442 4.49867 4.9077 3.69246 5.2648 2.9841C5.52236 2.50856 5.97691 1.97857 6.4782 1.76495C6.75448 1.65852 6.75448 1.65852 6.94591 1.44784C6.98456 1.31331 6.9981 1.18169 7.00742 1.04245C7.03644 0.828661 7.11831 0.716577 7.27746 0.575857C7.45514 0.461544 7.65314 0.481426 7.85729 0.482984ZM13.6676 8.86258C13.642 9.12039 13.6164 9.3782 13.59 9.64383C13.8595 9.61674 13.8595 9.61674 14.0171 9.44851C14.0731 9.33585 14.0596 9.23691 14.0584 9.1116C14.058 9.06518 14.0577 9.01875 14.0573 8.97091C14.0569 8.93516 14.0564 8.89941 14.0559 8.86258C13.9278 8.86258 13.7997 8.86258 13.6676 8.86258Z" fill="#F4C8AF"/>
<path d="M7.64888 11.675C7.83162 11.7026 7.83162 11.7026 7.88187 11.7532C7.88522 11.8703 7.88624 11.9867 7.88596 12.1038C7.88649 12.1776 7.88707 12.2513 7.88771 12.3251C7.88859 12.4411 7.88916 12.5571 7.88867 12.6732C7.88652 13.364 7.98685 13.9151 8.46433 14.4485C8.91464 14.8879 9.4359 15.0501 10.0522 15.0489C10.5743 15.0341 11.0391 14.8022 11.4202 14.4499C11.8062 14.0292 11.9618 13.517 11.9686 12.9576C11.9699 12.8873 11.9712 12.8171 11.9725 12.7469C11.9744 12.6366 11.9761 12.5262 11.9776 12.4159C11.9791 12.3092 11.9811 12.2025 11.9832 12.0957C11.9835 12.0626 11.9839 12.0294 11.9842 11.9952C11.9891 11.762 11.9891 11.762 12.0756 11.675C12.2035 11.6826 12.2837 11.7218 12.3964 11.7843C12.6106 11.8932 12.8387 11.9491 13.07 12.0099C13.1527 12.0317 13.2352 12.0538 13.3177 12.0761C13.5228 12.1314 13.728 12.186 13.9333 12.2406C14.1069 12.2867 14.2803 12.3332 14.4537 12.38C14.5339 12.4016 14.6142 12.4227 14.6944 12.4437C15.554 12.6733 16.3068 13.0415 16.8129 13.8064C16.8533 13.8763 16.8922 13.9471 16.9294 14.0188C16.9467 14.052 16.9641 14.0853 16.9819 14.1195C17.0906 14.3544 17.1538 14.5957 17.2099 14.8474C17.2222 14.9023 17.2222 14.9023 17.2347 14.9583C17.3503 15.4844 17.4494 16.014 17.548 16.5435C17.5765 16.6964 17.6058 16.8491 17.6351 17.0017C17.6581 17.1218 17.6805 17.242 17.7028 17.3622C17.7133 17.4185 17.724 17.4747 17.735 17.531C17.8811 18.2844 17.883 18.9689 17.473 19.6438C17.153 20.0831 16.6852 20.3907 16.1528 20.5032C16.0822 20.5068 16.0116 20.5083 15.9409 20.5084C15.8976 20.5086 15.8543 20.5088 15.8097 20.5089C15.7621 20.5089 15.7145 20.5089 15.6655 20.5089C15.615 20.5091 15.5644 20.5092 15.5124 20.5094C15.3719 20.5097 15.2315 20.5099 15.0911 20.51C14.9397 20.5102 14.7883 20.5105 14.6369 20.5109C14.2711 20.5116 13.9053 20.512 13.5396 20.5124C13.3673 20.5125 13.195 20.5128 13.0226 20.513C12.4497 20.5136 11.8768 20.5142 11.3038 20.5145C11.1551 20.5146 11.0065 20.5146 10.8578 20.5147C10.8024 20.5147 10.8024 20.5147 10.7458 20.5148C10.1475 20.5151 9.54923 20.5161 8.95094 20.5173C8.33645 20.5186 7.72196 20.5193 7.10747 20.5195C6.76255 20.5195 6.41763 20.5199 6.07272 20.5209C5.7789 20.5217 5.48509 20.522 5.19128 20.5217C5.04148 20.5215 4.89169 20.5216 4.74189 20.5223C4.57916 20.5231 4.41645 20.5227 4.25371 20.5222C4.18338 20.5229 4.18338 20.5229 4.11163 20.5235C3.52416 20.5191 3.03261 20.2882 2.60484 19.8882C2.15589 19.403 2.0289 18.8174 2.05127 18.1759C2.06976 17.8841 2.13104 17.5972 2.18635 17.3107C2.19985 17.2386 2.21332 17.1666 2.22674 17.0945C2.2548 16.9445 2.28326 16.7946 2.31205 16.6448C2.34859 16.4545 2.38424 16.264 2.41959 16.0734C2.44723 15.9249 2.47528 15.7765 2.50346 15.628C2.51674 15.5579 2.52991 15.4877 2.54297 15.4175C2.73367 14.3968 3.0617 13.5411 3.94571 12.9328C4.40862 12.6429 4.94206 12.5154 5.46451 12.3756C5.51691 12.3614 5.56931 12.3471 5.62171 12.3329C5.84084 12.2733 6.06007 12.2141 6.27937 12.1551C6.41482 12.1187 6.55018 12.082 6.68549 12.045C6.76095 12.0245 6.83652 12.0044 6.91209 11.9843C7.30899 11.8891 7.30899 11.8891 7.64888 11.675Z" fill="#3179EB"/>
<path d="M7.85772 0.482984C7.90189 0.48271 7.94606 0.482436 7.99157 0.482154C8.13753 0.481466 8.28346 0.481922 8.42942 0.482449C8.5313 0.482344 8.63317 0.482192 8.73504 0.481996C8.94875 0.481712 9.16245 0.482086 9.37616 0.482831C9.62179 0.483677 9.8674 0.483409 10.113 0.482546C10.3506 0.481745 10.5881 0.481838 10.8257 0.482293C10.9261 0.482396 11.0265 0.482271 11.127 0.481905C11.7745 0.480064 12.3581 0.494213 12.9424 0.805936C12.9683 0.819387 12.9941 0.832837 13.0207 0.846696C13.2458 0.967558 13.4416 1.11014 13.6292 1.28445C13.6623 1.31507 13.6954 1.34568 13.7295 1.37722C14.2011 1.83239 14.5235 2.39262 14.7311 3.01297C14.7403 3.04061 14.7496 3.06826 14.7591 3.09674C14.8907 3.51214 14.9257 3.91606 14.9252 4.35086C14.9253 4.40205 14.9253 4.45324 14.9254 4.50598C14.9209 4.91956 14.8668 5.30123 14.7553 5.69851C14.7782 5.70858 14.801 5.71866 14.8245 5.72903C14.9181 5.78077 14.9752 5.83371 15.0466 5.91336C15.0686 5.93713 15.0906 5.96089 15.1133 5.98538C15.3437 6.33099 15.3613 6.66965 15.3559 7.07405C15.3548 7.16577 15.3551 7.25741 15.3556 7.34913C15.3551 7.78043 15.3166 8.12744 15.0353 8.4689C14.7179 8.7691 14.2928 8.86731 13.8697 8.8641C13.8317 8.86388 13.7938 8.86366 13.7548 8.86343C13.7262 8.86315 13.6976 8.86287 13.6681 8.86258C13.668 8.82251 13.668 8.78244 13.6679 8.74116C13.6673 8.3619 13.6656 7.98265 13.6629 7.6034C13.6616 7.40846 13.6606 7.21353 13.6605 7.01859C13.6603 6.83014 13.6592 6.64172 13.6575 6.45327C13.657 6.3817 13.6568 6.31013 13.657 6.23856C13.6581 5.63395 13.5552 5.18163 13.1346 4.72714C12.8706 4.47093 12.4857 4.2883 12.1163 4.28651C12.0765 4.28624 12.0367 4.28596 11.9957 4.28567C11.9521 4.28556 11.9085 4.28546 11.8635 4.28535C11.7945 4.28496 11.7945 4.28496 11.7242 4.28457C11.5716 4.2838 11.4191 4.28335 11.2665 4.28296C11.2139 4.2828 11.1612 4.28264 11.1086 4.28247C10.8612 4.28173 10.6137 4.28117 10.3663 4.28085C10.0814 4.28047 9.79641 4.27944 9.51145 4.27786C9.29082 4.27668 9.0702 4.2761 8.84958 4.27597C8.718 4.27588 8.58643 4.27554 8.45485 4.27455C8.30773 4.2736 8.16063 4.27363 8.0135 4.27391C7.97042 4.27341 7.92734 4.2729 7.88295 4.27239C7.50317 4.27493 7.21677 4.38832 6.90335 4.59897C6.83388 4.64383 6.83388 4.64383 6.75227 4.67892C6.65949 4.73308 6.64335 4.78046 6.60089 4.8782C6.54433 4.96109 6.4862 5.04264 6.42752 5.12402C6.28364 5.37925 6.23408 5.63194 6.23463 5.92245C6.23423 5.9545 6.23384 5.98656 6.23343 6.01958C6.23227 6.1242 6.2319 6.22881 6.23155 6.33343C6.23089 6.4065 6.23019 6.47956 6.22943 6.55262C6.2276 6.74392 6.22644 6.93522 6.22542 7.12653C6.22426 7.32214 6.22245 7.51775 6.2207 7.71336C6.21737 8.09643 6.21475 8.4795 6.21259 8.86258C6.11985 8.86377 6.02714 8.86464 5.9344 8.86532C5.89535 8.86588 5.89535 8.86588 5.85552 8.86644C5.48012 8.86852 5.179 8.75518 4.89234 8.51101C4.54458 8.14895 4.5229 7.73842 4.52555 7.25776C4.52588 7.16611 4.52476 7.07456 4.52353 6.98292C4.52166 6.5889 4.54618 6.21981 4.83167 5.92068C4.85324 5.89747 4.87482 5.87426 4.89705 5.85034C4.97001 5.77664 4.97001 5.77664 5.08104 5.69012C5.12218 5.63627 5.12218 5.63627 5.16416 5.58133C5.14506 5.46186 5.11978 5.37108 5.07922 5.25906C4.84463 4.49867 4.90814 3.69246 5.26524 2.9841C5.52279 2.50856 5.97734 1.97857 6.47864 1.76495C6.75492 1.65852 6.75492 1.65852 6.94635 1.44783C6.985 1.31331 6.99854 1.18169 7.00786 1.04245C7.03688 0.828661 7.11874 0.716577 7.2779 0.575857C7.45558 0.461544 7.65358 0.481426 7.85772 0.482984Z" fill="#2C303D"/>
<path d="M7.75828 11.6824C7.84323 11.7142 7.84323 11.7142 7.88206 11.7532C7.88541 11.8703 7.88643 11.9867 7.88615 12.1039C7.88668 12.1776 7.88726 12.2514 7.8879 12.3251C7.88877 12.4412 7.88934 12.5572 7.88885 12.6732C7.88671 13.3641 7.98703 13.9151 8.46452 14.4485C8.80768 14.7834 9.19741 14.9656 9.66827 15.0345C9.66827 15.0474 9.66827 15.0602 9.66827 15.0735C9.30911 15.0762 8.94995 15.0783 8.59078 15.0796C8.42398 15.0802 8.25719 15.081 8.09039 15.0824C7.92926 15.0836 7.76813 15.0843 7.60699 15.0846C7.54568 15.0849 7.48438 15.0853 7.42308 15.0859C6.72181 15.0929 6.72181 15.0929 6.47475 14.882C6.45383 14.8558 6.4329 14.8296 6.41135 14.8025C6.37906 14.7633 6.37906 14.7633 6.34612 14.7233C6.13601 14.4257 6.18783 14.0388 6.22766 13.6889C6.38126 12.8934 6.90013 12.21 7.54001 11.7404C7.64907 11.6751 7.64907 11.6751 7.75828 11.6824Z" fill="#5CB2F7"/>
<path d="M12.0762 11.675C12.4037 11.6969 12.714 12.0172 12.9315 12.2459C13.4263 12.848 13.7129 13.5506 13.6843 14.3376C13.663 14.5369 13.6133 14.6582 13.4741 14.8C13.4554 14.8195 13.4368 14.8389 13.4175 14.8589C13.2208 15.0417 13.0154 15.0832 12.7548 15.0836C12.6806 15.084 12.6806 15.084 12.6048 15.0843C12.5514 15.0842 12.4979 15.084 12.4445 15.0839C12.3893 15.0839 12.3341 15.084 12.2789 15.0841C12.1636 15.0842 12.0483 15.084 11.9331 15.0837C11.7851 15.0832 11.6373 15.0835 11.4894 15.084C11.3756 15.0842 11.2618 15.0841 11.148 15.0839C11.0934 15.0839 11.0389 15.084 10.9843 15.0841C10.9083 15.0843 10.8323 15.084 10.7562 15.0836C10.7129 15.0835 10.6697 15.0835 10.6251 15.0834C10.523 15.0735 10.523 15.0735 10.4453 14.9954C10.4712 14.9873 10.4971 14.9791 10.5237 14.9708C11.0885 14.7809 11.4873 14.4769 11.7607 13.9407C11.9224 13.6137 11.9708 13.3038 11.9731 12.9423C11.9736 12.9083 11.9742 12.8743 11.9748 12.8393C11.9772 12.6953 11.9787 12.5513 11.9804 12.4073C11.9817 12.3016 11.9834 12.1959 11.9852 12.0902C11.9854 12.0576 11.9856 12.0249 11.9858 11.9912C11.9898 11.762 11.9898 11.762 12.0762 11.675Z" fill="#5CB2F7"/>
<path d="M6.25138 5.50317C6.23857 6.61176 6.22575 7.72036 6.21255 8.86254C5.66563 8.86254 5.30373 8.86143 4.89231 8.51098C4.54455 8.14892 4.52287 7.73838 4.52551 7.25773C4.52584 7.16608 4.52472 7.07453 4.52349 6.98289C4.52132 6.52583 4.58218 6.18189 4.90338 5.84237C5.30197 5.44871 5.6822 5.50317 6.25138 5.50317Z" fill="#357DEB"/>
<path d="M13.6289 5.50317C14.6458 5.50317 14.6458 5.50317 15.0122 5.84741C15.262 6.13203 15.3431 6.40793 15.3453 6.78171C15.3456 6.811 15.3458 6.84029 15.346 6.87047C15.3464 6.93242 15.3466 6.99438 15.3468 7.05634C15.3472 7.15013 15.3484 7.24388 15.3496 7.33766C15.3526 7.7753 15.3209 8.12183 15.035 8.46887C14.6507 8.83224 14.1697 8.86255 13.6677 8.86255C13.6549 7.75396 13.6421 6.64536 13.6289 5.50317Z" fill="#357DEB"/>
<path d="M9.66389 15.1082C9.70995 15.1085 9.70995 15.1085 9.75694 15.1088C9.80668 15.109 9.80668 15.109 9.85743 15.1092C9.89229 15.1095 9.92715 15.1098 9.96307 15.1101C9.99809 15.1103 10.0331 15.1105 10.0692 15.1107C10.156 15.1111 10.2427 15.1118 10.3295 15.1126C10.3629 16.3993 10.3719 17.6853 10.3708 18.9725C10.3708 19.0104 10.3707 19.0483 10.3707 19.0874C10.3703 19.5593 10.3694 20.0313 10.3684 20.5032C10.0865 20.5032 9.80455 20.5032 9.51409 20.5032C9.50669 17.2272 9.50669 17.2272 9.53108 15.9622C9.53184 15.9197 9.53261 15.8771 9.53339 15.8333C9.53556 15.7166 9.53802 15.5998 9.54064 15.4831C9.54129 15.4494 9.54194 15.4157 9.5426 15.381C9.54945 15.1152 9.54945 15.1152 9.66389 15.1082Z" fill="#2759D3"/>
<path d="M10.7182 9.23368C10.7693 9.23358 10.8203 9.23348 10.8729 9.23337C11.1952 9.23663 11.4946 9.24034 11.7509 9.45463C11.7753 9.48484 11.7997 9.51505 11.8249 9.54618C11.8627 9.5915 11.8627 9.5915 11.9013 9.63773C12.0472 9.84442 12.025 10.1045 11.9996 10.347C11.9056 10.5972 11.7315 10.7459 11.5053 10.8774C11.2936 10.9665 11.0642 10.9518 10.8384 10.9503C10.7598 10.95 10.6813 10.9511 10.6027 10.9524C10.263 10.9522 10.0357 10.9311 9.77551 10.6971C9.7436 10.6579 9.7436 10.6579 9.71104 10.618C9.67808 10.5786 9.67808 10.5786 9.64445 10.5385C9.49684 10.3288 9.5264 10.0439 9.55329 9.80008C9.64395 9.55539 9.80073 9.41335 10.0264 9.29266C10.2501 9.21196 10.4835 9.22859 10.7182 9.23368Z" fill="#347AEA"/>
<path d="M14.8339 8.55005C14.8724 8.55005 14.9108 8.55005 14.9504 8.55005C14.9718 9.63295 14.9718 9.63295 14.6301 10.1199C14.3869 10.37 14.1147 10.5058 13.7643 10.512C13.6784 10.512 13.5926 10.5116 13.5067 10.5108C13.4614 10.5107 13.416 10.5106 13.3693 10.5105C13.2249 10.51 13.0805 10.5091 12.9361 10.5081C12.838 10.5077 12.7399 10.5073 12.6418 10.507C12.4018 10.5061 12.1617 10.5048 11.9216 10.5032C11.9279 10.4799 11.9342 10.4565 11.9407 10.4325C11.9669 10.3191 11.9671 10.2119 11.9678 10.0955C11.9683 10.052 11.9689 10.0085 11.9694 9.96378C11.9605 9.83947 11.9311 9.75718 11.8828 9.6438C11.9318 9.64421 11.9807 9.64462 12.0312 9.64504C12.2138 9.64646 12.3965 9.64735 12.5791 9.64809C12.658 9.64848 12.7369 9.64901 12.8157 9.64969C12.9295 9.65065 13.0432 9.65108 13.1569 9.65143C13.1919 9.65183 13.2268 9.65223 13.2628 9.65265C13.6208 9.65328 13.6208 9.65328 13.9384 9.50708C14.0293 9.37797 14.0297 9.26793 14.0403 9.11157C14.0436 9.06515 14.0468 9.01872 14.0502 8.97089C14.0537 8.91726 14.0537 8.91726 14.0573 8.86255C14.0934 8.85288 14.1294 8.84321 14.1665 8.83325C14.5285 8.74287 14.5285 8.74287 14.8339 8.55005Z" fill="#A8AEAF"/>
<path d="M5.99163 16.3142C6.02372 16.3139 6.05581 16.3136 6.08887 16.3133C6.1569 16.3127 6.22492 16.3123 6.29295 16.312C6.3966 16.3113 6.50019 16.3096 6.60382 16.3079C6.66996 16.3075 6.73609 16.3071 6.80222 16.3069C6.83305 16.3062 6.86388 16.3055 6.89565 16.3048C7.10019 16.3056 7.2161 16.343 7.37801 16.4798C7.47521 16.6264 7.47325 16.6965 7.45567 16.8704C7.37386 17.0262 7.31056 17.1233 7.14503 17.1829C7.03616 17.1909 6.93126 17.1948 6.8224 17.1946C6.79119 17.1948 6.75998 17.195 6.72782 17.1951C6.66193 17.1954 6.59603 17.1954 6.53013 17.1952C6.42957 17.1951 6.32905 17.196 6.22849 17.197C6.16435 17.1971 6.10021 17.1971 6.03608 17.1971C6.00614 17.1974 5.9762 17.1978 5.94536 17.1982C5.72633 17.1963 5.6023 17.1483 5.44376 16.9998C5.37554 16.8661 5.36727 16.7417 5.39765 16.597C5.54946 16.3339 5.71007 16.3168 5.99163 16.3142Z" fill="#E6EAEE"/>
</g>
<defs>
<clipPath id="clip0_39039_7883">
<rect width="19.8813" height="20" fill="white" transform="translate(0 0.503174)"/>
</clipPath>
</defs>
</svg>
