<svg width="16" height="16" viewBox="0 0 16 16" fill="none" xmlns="http://www.w3.org/2000/svg">
<path d="M0.340742 7.93044C0.340367 9.27921 0.694367 10.5962 1.36749 11.757L0.276367 15.7231L4.35337 14.6589C5.48101 15.27 6.74446 15.5902 8.02837 15.5903H8.03174C12.2702 15.5903 15.7204 12.1568 15.7222 7.93647C15.723 5.89145 14.9237 3.96844 13.4716 2.52167C12.0197 1.07503 10.0888 0.277911 8.03143 0.276978C3.79249 0.276978 0.342555 3.71034 0.340805 7.93044" fill="url(#paint0_linear_11298_5092)"/>
<path d="M0.066875 7.92798C0.0664375 9.32528 0.433125 10.6894 1.13025 11.8917L0 16L4.22319 14.8976C5.38681 15.5292 6.69694 15.8622 8.03006 15.8627H8.0335C12.424 15.8627 15.9981 12.3057 16 7.93433C16.0008 5.81582 15.1728 3.82368 13.6688 2.32508C12.1646 0.826671 10.1646 0.000871097 8.0335 0C3.64225 0 0.068625 3.55656 0.066875 7.92798ZM2.58188 11.6846L2.42419 11.4355C1.76131 10.3862 1.41144 9.17359 1.41194 7.92848C1.41338 4.29507 4.38363 1.339 8.036 1.339C9.80475 1.33975 11.467 2.02617 12.7173 3.27159C13.9674 4.51714 14.6554 6.17284 14.6549 7.93383C14.6533 11.5672 11.683 14.5237 8.0335 14.5237H8.03088C6.84256 14.5231 5.67712 14.2054 4.66075 13.605L4.41888 13.4622L1.91275 14.1163L2.58188 11.6846Z" fill="url(#paint1_linear_11298_5092)"/>
<path d="M6.0432 4.61355C5.89408 4.2836 5.73714 4.27694 5.59533 4.27115C5.4792 4.26617 5.34645 4.26655 5.21383 4.26655C5.08108 4.26655 4.86539 4.31626 4.68308 4.51444C4.50058 4.7128 3.98633 5.19215 3.98633 6.16709C3.98633 7.1421 4.69964 8.08432 4.79908 8.21666C4.89864 8.34876 6.17614 10.4135 8.19939 11.2078C9.88089 11.8679 10.2231 11.7366 10.588 11.7035C10.953 11.6706 11.7658 11.2243 11.9316 10.7616C12.0975 10.2989 12.0975 9.9023 12.0478 9.81942C11.998 9.73685 11.8653 9.68726 11.6662 9.5882C11.4671 9.48908 10.4885 9.00967 10.306 8.94353C10.1235 8.87745 9.99083 8.84447 9.85808 9.0429C9.72533 9.24101 9.34414 9.68726 9.22795 9.81942C9.11189 9.95189 8.9957 9.96837 8.7967 9.86926C8.59752 9.76983 7.95645 9.56083 7.19589 8.88579C6.60414 8.36052 6.20464 7.71186 6.08852 7.51344C5.97239 7.31532 6.07608 7.20793 6.17589 7.10919C6.26533 7.0204 6.37502 6.87778 6.47464 6.76212C6.57389 6.64638 6.60702 6.56382 6.67339 6.43166C6.73983 6.29938 6.70658 6.18365 6.65689 6.08453C6.60702 5.98541 6.2202 5.00542 6.0432 4.61362" fill="white"/>
<defs>
<linearGradient id="paint0_linear_11298_5092" x1="7.99927" y1="15.7231" x2="7.99927" y2="0.276978" gradientUnits="userSpaceOnUse">
<stop stop-color="#1FAF38"/>
<stop offset="1" stop-color="#60D669"/>
</linearGradient>
<linearGradient id="paint1_linear_11298_5092" x1="8" y1="16" x2="8" y2="0" gradientUnits="userSpaceOnUse">
<stop stop-color="#F9F9F9"/>
<stop offset="1" stop-color="white"/>
</linearGradient>
</defs>
</svg>
