<svg width="800" height="693" viewBox="0 0 800 693" fill="none" xmlns="http://www.w3.org/2000/svg">
<path d="M66.6667 179.913C66.6667 198.314 51.7428 213.231 33.3333 213.231C14.9238 213.231 0 198.314 0 179.913C0 161.513 14.9238 146.596 33.3333 146.596C51.7428 146.596 66.6667 161.513 66.6667 179.913Z" fill="#FFDD55"/>
<path d="M146.667 66.6346C146.667 96.0756 122.789 119.942 93.3333 119.942C63.8781 119.942 40 96.0756 40 66.6346C40 37.1936 63.8781 13.3269 93.3333 13.3269C122.789 13.3269 146.667 37.1936 146.667 66.6346Z" fill="#FFDD55"/>
<path d="M760 346.5C760 537.867 604.792 693 413.333 693C221.875 693 66.6667 537.867 66.6667 346.5C66.6667 155.133 221.875 0 413.333 0C604.792 0 760 155.133 760 346.5Z" fill="#662D91"/>
<path d="M331.693 158.206C332.47 157.187 333.477 156.361 334.635 155.791C335.793 155.222 337.069 154.925 338.364 154.925H488.441C489.736 154.925 491.012 155.222 492.17 155.791C493.328 156.361 494.335 157.187 495.111 158.206L544.737 223.389C547.222 226.423 547.338 230.77 544.904 233.952L420.073 397.681C419.296 398.699 418.289 399.526 417.131 400.095C415.973 400.665 414.697 400.961 413.402 400.961C412.108 400.961 410.831 400.665 409.674 400.095C408.516 399.526 407.509 398.699 406.732 397.681L281.668 233.657C280.585 232.237 280 230.511 280 228.736C280 226.962 280.585 225.235 281.668 223.815L331.693 158.206ZM521.558 220.289L491.443 180.759L478.503 220.338L521.558 220.289ZM460.977 220.355L477.002 171.328H349.803L365.861 220.453L460.977 220.355ZM371.214 236.855L413.402 365.958L455.624 236.773L371.214 236.855ZM348.352 220.469L335.345 180.743L305.03 220.519L348.352 220.469ZM304.996 236.937L390.257 348.752L353.705 236.888L305.013 236.937H304.996ZM436.548 348.752L521.975 236.724L473.15 236.757L436.548 348.752Z" fill="white"/>
<path d="M720 646.356C720 664.756 705.076 679.673 686.667 679.673C668.257 679.673 653.333 664.756 653.333 646.356C653.333 627.955 668.257 613.038 686.667 613.038C705.076 613.038 720 627.955 720 646.356Z" fill="#FFDD55"/>
<path d="M800 486.433C800 526.914 767.168 559.731 726.667 559.731C686.166 559.731 653.333 526.914 653.333 486.433C653.333 445.951 686.166 413.135 726.667 413.135C767.168 413.135 800 445.951 800 486.433Z" fill="#FFDD55"/>
</svg>
