<svg width="21" height="20" viewBox="0 0 21 20" fill="none" xmlns="http://www.w3.org/2000/svg">
<path d="M0.188965 6.70833C0.188965 4.33546 0.188965 3.14902 0.659459 2.24594C1.05594 1.48493 1.67827 0.864425 2.44153 0.469111C3.34727 0 4.53721 0 6.91709 0H13.5198C15.8997 0 17.0897 0 17.9954 0.469111C18.7587 0.864425 19.381 1.48493 19.7775 2.24594C20.248 3.14902 20.248 4.33546 20.248 6.70833V13.2917C20.248 15.6645 20.248 16.851 19.7775 17.7541C19.381 18.5151 18.7587 19.1356 17.9954 19.5309C17.0897 20 15.8997 20 13.5198 20H6.91709C4.53721 20 3.34727 20 2.44153 19.5309C1.67827 19.1356 1.05594 18.5151 0.659459 17.7541C0.188965 16.851 0.188965 15.6645 0.188965 13.2917V6.70833Z" fill="#1EA1F2"/>
<path fill-rule="evenodd" clip-rule="evenodd" d="M15.786 7.56352C15.7908 7.68844 15.7924 7.8133 15.7924 7.93822C15.7924 11.7255 13.1204 16.0977 8.23419 16.0977C6.73323 16.0977 5.33755 15.6207 4.16162 14.8088C4.36949 14.8315 4.5806 14.8485 4.79494 14.8485C6.03944 14.8485 7.18568 14.3885 8.09489 13.6163C6.93246 13.5993 5.9509 12.7646 5.61238 11.629C5.77489 11.663 5.94225 11.6801 6.1134 11.6801C6.35475 11.6801 6.58907 11.6461 6.81367 11.578C5.59724 11.3168 4.68102 10.1585 4.68102 8.76734C4.68102 8.7503 4.68102 8.74459 4.68102 8.73324C5.03952 8.94333 5.44985 9.07386 5.88556 9.09089C5.1718 8.57418 4.70261 7.6941 4.70261 6.70044C4.70261 6.17805 4.83326 5.68404 5.06327 5.25818C6.3731 6.99568 8.33138 8.13699 10.5391 8.25623C10.4937 8.04614 10.4705 7.82475 10.4705 7.6033C10.4705 6.01912 11.6599 4.73584 13.1274 4.73584C13.8914 4.73584 14.5814 5.08225 15.0657 5.63871C15.672 5.51379 16.24 5.27532 16.754 4.946C16.5548 5.61601 16.1342 6.17802 15.5846 6.53007C16.1223 6.46193 16.6353 6.30874 17.1109 6.08161C16.754 6.6551 16.3048 7.16037 15.786 7.56352Z" fill="white"/>
</svg>
