<svg width="21" height="20" viewBox="0 0 21 20" fill="none" xmlns="http://www.w3.org/2000/svg">
<path d="M0.0942383 6.70833C0.0942383 4.33546 0.0942383 3.14902 0.564733 2.24594C0.961214 1.48493 1.58355 0.864425 2.3468 0.469111C3.25254 0 4.44248 0 6.82236 0H13.4251C15.805 0 16.9949 0 17.9007 0.469111C18.6639 0.864425 19.2863 1.48493 19.6827 2.24594C20.1532 3.14902 20.1532 4.33546 20.1532 6.70833V13.2917C20.1532 15.6645 20.1532 16.851 19.6827 17.7541C19.2863 18.5151 18.6639 19.1356 17.9007 19.5309C16.9949 20 15.805 20 13.4251 20H6.82236C4.44248 20 3.25254 20 2.3468 19.5309C1.58355 19.1356 0.961214 18.5151 0.564733 17.7541C0.0942383 16.851 0.0942383 15.6645 0.0942383 13.2917V6.70833Z" fill="#1265BF"/>
<path d="M4.59656 6.2112C5.5576 6.2112 6.33667 5.43442 6.33667 4.47621C6.33667 3.51799 5.5576 2.74121 4.59656 2.74121C3.63552 2.74121 2.85645 3.51799 2.85645 4.47621C2.85645 5.43442 3.63552 6.2112 4.59656 6.2112Z" fill="white"/>
<path d="M7.93032 7.49342H10.8143V8.81068C10.8143 8.81068 11.5968 7.25009 13.7262 7.25009C15.6256 7.25009 17.1991 8.18305 17.1991 11.0268V17.0234H14.2105V11.7534C14.2105 10.0759 13.3123 9.89138 12.6278 9.89138C11.2073 9.89138 10.9641 11.1131 10.9641 11.9722V17.0234H7.93032V7.49342Z" fill="white"/>
<path d="M3.07966 7.49342H6.11346V17.0234H3.07966V7.49342Z" fill="white"/>
</svg>
