<svg width="21" height="20" viewBox="0 0 21 20" fill="none" xmlns="http://www.w3.org/2000/svg">
<g clip-path="url(#clip0_7025_2818)">
<path d="M0.0112305 6.70833C0.0112305 4.33546 0.0112305 3.14902 0.481725 2.24594C0.878206 1.48493 1.50054 0.864425 2.2638 0.469111C3.16954 0 4.35947 0 6.73935 0H13.3421C15.722 0 16.9119 0 17.8177 0.469111C18.5809 0.864425 19.2033 1.48493 19.5997 2.24594C20.0702 3.14902 20.0702 4.33546 20.0702 6.70833V13.2917C20.0702 15.6645 20.0702 16.851 19.5997 17.7541C19.2033 18.5151 18.5809 19.1356 17.8177 19.5309C16.9119 20 15.722 20 13.3421 20H6.73935C4.35947 20 3.16954 20 2.2638 19.5309C1.50054 19.1356 0.878206 18.5151 0.481725 17.7541C0.0112305 16.851 0.0112305 15.6645 0.0112305 13.2917V6.70833Z" fill="url(#paint0_radial_7025_2818)"/>
<path d="M0.0112305 6.70833C0.0112305 4.33546 0.0112305 3.14902 0.481725 2.24594C0.878206 1.48493 1.50054 0.864425 2.2638 0.469111C3.16954 0 4.35947 0 6.73935 0H13.3421C15.722 0 16.9119 0 17.8177 0.469111C18.5809 0.864425 19.2033 1.48493 19.5997 2.24594C20.0702 3.14902 20.0702 4.33546 20.0702 6.70833V13.2917C20.0702 15.6645 20.0702 16.851 19.5997 17.7541C19.2033 18.5151 18.5809 19.1356 17.8177 19.5309C16.9119 20 15.722 20 13.3421 20H6.73935C4.35947 20 3.16954 20 2.2638 19.5309C1.50054 19.1356 0.878206 18.5151 0.481725 17.7541C0.0112305 16.851 0.0112305 15.6645 0.0112305 13.2917V6.70833Z" fill="url(#paint1_radial_7025_2818)"/>
<path d="M10.0299 2.72705C8.049 2.72705 7.8004 2.73569 7.02238 2.77099C6.24587 2.80644 5.71585 2.92902 5.25207 3.10887C4.77234 3.29463 4.3654 3.54311 3.95998 3.9475C3.55425 4.35175 3.30504 4.7575 3.11813 5.23569C2.9373 5.69826 2.81422 6.2269 2.77927 7.00084C2.74447 7.7766 2.73535 8.02463 2.73535 9.99978C2.73535 11.9749 2.74417 12.222 2.77942 12.9978C2.81513 13.772 2.93806 14.3005 3.11828 14.763C3.30474 15.2413 3.55395 15.647 3.95952 16.0513C4.36479 16.4558 4.77173 16.7049 5.25116 16.8907C5.71524 17.0705 6.24542 17.1931 7.02177 17.2286C7.79979 17.2639 8.04824 17.2725 10.029 17.2725C12.0101 17.2725 12.2579 17.2639 13.0359 17.2286C13.8124 17.1931 14.3431 17.0705 14.8072 16.8907C15.2867 16.7049 15.6931 16.4558 16.0983 16.0513C16.5041 15.647 16.7533 15.2413 16.9402 14.7631C17.1195 14.3005 17.2426 13.7719 17.279 12.998C17.314 12.2222 17.3231 11.9749 17.3231 9.99978C17.3231 8.02463 17.314 7.77675 17.279 7.00099C17.2426 6.22675 17.1195 5.69826 16.9402 5.23584C16.7533 4.7575 16.5041 4.35175 16.0983 3.9475C15.6926 3.54296 15.2869 3.29447 14.8067 3.10887C14.3417 2.92902 13.8114 2.80644 13.0349 2.77099C12.2569 2.73569 12.0092 2.72705 10.0276 2.72705H10.0299ZM9.37559 4.03766C9.56979 4.03735 9.78648 4.03766 10.0299 4.03766C11.9774 4.03766 12.2082 4.04463 12.9773 4.07947C13.6884 4.1119 14.0744 4.23038 14.3315 4.32993C14.6719 4.46175 14.9146 4.61932 15.1697 4.87387C15.425 5.12841 15.5831 5.37084 15.7156 5.71023C15.8154 5.96629 15.9344 6.35114 15.9667 7.06023C16.0017 7.8269 16.0093 8.0572 16.0093 9.99811C16.0093 11.939 16.0017 12.1693 15.9667 12.936C15.9342 13.6451 15.8154 14.0299 15.7156 14.286C15.5834 14.6254 15.425 14.867 15.1697 15.1214C14.9144 15.376 14.6721 15.5336 14.3315 15.6654C14.0747 15.7654 13.6884 15.8836 12.9773 15.916C12.2084 15.9508 11.9774 15.9584 10.0299 15.9584C8.08228 15.9584 7.85146 15.9508 7.08255 15.916C6.37139 15.8833 5.98542 15.7648 5.72815 15.6652C5.38777 15.5334 5.14464 15.3758 4.88935 15.1213C4.63406 14.8667 4.47602 14.6249 4.34352 14.2854C4.24368 14.0293 4.1247 13.6445 4.09233 12.9354C4.05738 12.1687 4.05039 11.9384 4.05039 9.99629C4.05039 8.05417 4.05738 7.82508 4.09233 7.05841C4.12485 6.34932 4.24368 5.96447 4.34352 5.70811C4.47572 5.36872 4.63406 5.12629 4.88935 4.87175C5.14464 4.6172 5.38777 4.45963 5.72815 4.3275C5.98527 4.2275 6.37139 4.10932 7.08255 4.07675C7.75542 4.04644 8.01618 4.03735 9.37559 4.03584V4.03766ZM13.9234 5.24523C13.4401 5.24523 13.0481 5.63569 13.0481 6.11766C13.0481 6.59947 13.4401 6.99038 13.9234 6.99038C14.4066 6.99038 14.7986 6.59947 14.7986 6.11766C14.7986 5.63584 14.4066 5.24493 13.9234 5.24493V5.24523ZM10.0299 6.26493C7.96132 6.26493 6.28417 7.9372 6.28417 9.99978C6.28417 12.0624 7.96132 13.7339 10.0299 13.7339C12.0985 13.7339 13.7751 12.0624 13.7751 9.99978C13.7751 7.9372 12.0984 6.26493 10.0298 6.26493H10.0299ZM10.0299 7.57553C11.3726 7.57553 12.4612 8.66084 12.4612 9.99978C12.4612 11.3386 11.3726 12.424 10.0299 12.424C8.68707 12.424 7.5986 11.3386 7.5986 9.99978C7.5986 8.66084 8.68707 7.57553 10.0299 7.57553Z" fill="white"/>
</g>
<defs>
<radialGradient id="paint0_radial_7025_2818" cx="0" cy="0" r="1" gradientUnits="userSpaceOnUse" gradientTransform="translate(5.33943 21.5404) rotate(-90) scale(19.8215 18.4899)">
<stop stop-color="#FFDD55"/>
<stop offset="0.1" stop-color="#FFDD55"/>
<stop offset="0.5" stop-color="#FF543E"/>
<stop offset="1" stop-color="#C837AB"/>
</radialGradient>
<radialGradient id="paint1_radial_7025_2818" cx="0" cy="0" r="1" gradientUnits="userSpaceOnUse" gradientTransform="translate(-3.34876 1.44077) rotate(78.6481) scale(8.86129 36.626)">
<stop stop-color="#3771C8"/>
<stop offset="0.128" stop-color="#3771C8"/>
<stop offset="1" stop-color="#6600FF" stop-opacity="0"/>
</radialGradient>
<clipPath id="clip0_7025_2818">
<rect width="20.059" height="20" fill="white"/>
</clipPath>
</defs>
</svg>
