<svg width="21" height="20" viewBox="0 0 21 20" fill="none" xmlns="http://www.w3.org/2000/svg">
<path d="M0.905273 6.70833C0.905273 4.33546 0.905273 3.14902 1.37577 2.24594C1.77225 1.48493 2.39458 0.864425 3.15784 0.469111C4.06358 0 5.25352 0 7.6334 0H14.2361C16.616 0 17.806 0 18.7117 0.469111C19.475 0.864425 20.0973 1.48493 20.4938 2.24594C20.9643 3.14902 20.9643 4.33546 20.9643 6.70833V13.2917C20.9643 15.6645 20.9643 16.851 20.4938 17.7541C20.0973 18.5151 19.475 19.1356 18.7117 19.5309C17.806 20 16.616 20 14.2361 20H7.6334C5.25352 20 4.06358 20 3.15784 19.5309C2.39458 19.1356 1.77225 18.5151 1.37577 17.7541C0.905273 16.851 0.905273 15.6645 0.905273 13.2917V6.70833Z" fill="url(#paint0_linear_7025_2817)"/>
<path d="M14.8352 12.7776L15.2809 9.99978H12.6064V8.05534C12.6064 7.27756 12.885 6.66645 14.1108 6.66645H15.3924V4.11089C14.668 3.99978 13.8879 3.88867 13.1636 3.88867C10.8791 3.88867 9.26323 5.27756 9.26323 7.77756V9.99978H6.75586V12.7776H9.26323V19.9998C10.3776 19.9998 11.492 19.9998 12.6064 19.9998V12.7776H14.8352Z" fill="white"/>
<defs>
<linearGradient id="paint0_linear_7025_2817" x1="10.9348" y1="19.4156" x2="10.9348" y2="0" gradientUnits="userSpaceOnUse">
<stop stop-color="#0062E0"/>
<stop offset="1" stop-color="#19AFFF"/>
</linearGradient>
</defs>
</svg>
